<svg
        xmlns="http://www.w3.org/2000/svg"
        width="148.166"
        height="78"
        viewBox="0 0 148.166 78"
      >
        <path
          id="Path_1"
          data-name="Path 1"
          d="M283.862,299.734a10.235,10.235,0,0,0-5.693,4.077,11.283,11.283,0,0,0-2.476,6.74,4.085,4.085,0,1,0,8.17,0Zm-3.254-21.8a6.336,6.336,0,1,1-1.85-4.5,6.326,6.326,0,0,1,1.85,4.5Zm14.442,37.83A24.094,24.094,0,0,1,287.5,333.74a25.019,25.019,0,0,1-35.189-.072,25.59,25.59,0,0,1-7.483-16.6q-.163-13.044,10.138-21.615l-1.066,7.537q6.757.258,3.832,6.087a13.566,13.566,0,0,0-1.717,6.957,13.939,13.939,0,0,0,3.9,9.345,13.688,13.688,0,0,0,9.109,4.314,13.939,13.939,0,0,0,10.573-3.914c.624-.57,1.064-.975.5-.212.479-.05.314.4.314.339.022-.027-.181-.036-.615-.036a14.605,14.605,0,0,1-10.808-4.53,14.882,14.882,0,0,1-4.484-10.8,21.633,21.633,0,0,1,3.38-11.632,23.687,23.687,0,0,1,9.887-8.642q6.575-3.295,17.279-3.3ZM294,277.938a6.255,6.255,0,0,1-1.844,4.475A6.371,6.371,0,1,1,294,277.936Zm24.025,37.776a24.158,24.158,0,0,1-7.555,18.027q-7.537,7.3-19.646,7.175l4.987-2.519q-4.987-6.034,2.459-9.748,8.567-4.206,8.567-12.936V297.088q0-4.145,7.121-1.507-1.214-8.6,4.067-8.606Zm24.242,10.164A15.419,15.419,0,0,1,327.1,310.5v-37.45q0-4.2,8.043-1.884-2.118-8.22,3.127-8.225V310.5a4.2,4.2,0,0,0,4.157,4.165h2.513v11.215Zm28.554-47.94a6.351,6.351,0,1,1-6.343-6.359,6.36,6.36,0,0,1,6.343,6.359ZM346.3,307.85q.034-9.2,5.4-14.838a19.155,19.155,0,0,1,13.375-6h.127a1.907,1.907,0,0,1,.487-.036l1.755.091a23.615,23.615,0,0,1,12.562,4.766,29.615,29.615,0,0,1,9.4,12.394q3.583,8.155,3.579,21.651H341.819v-11.22h39.006q-1.627-8.6-6.148-12.556-4.555-3.873-8.948-3.878a8.839,8.839,0,0,0-4.266,1.178,8.4,8.4,0,0,0-3.254,3.587q-2.765,4.857-6.308-.6ZM244.825,262.936"
          transform="translate(-244.82 -262.936)"
          fill="rgba(255, 255, 255, 1)"
        />
        <path
          id="Path_2"
          data-name="Path 2"
          d="M283.862,299.734a10.235,10.235,0,0,0-5.693,4.077,11.283,11.283,0,0,0-2.476,6.74,4.085,4.085,0,1,0,8.17,0Zm-3.254-21.8a6.336,6.336,0,1,1-1.85-4.5,6.326,6.326,0,0,1,1.85,4.5Zm14.442,37.83A24.094,24.094,0,0,1,287.5,333.74a25.019,25.019,0,0,1-35.189-.072,25.59,25.59,0,0,1-7.483-16.6q-.163-13.044,10.138-21.615l-1.066,7.537q6.757.258,3.832,6.087a13.566,13.566,0,0,0-1.717,6.957,13.939,13.939,0,0,0,3.9,9.345,13.688,13.688,0,0,0,9.109,4.314,13.939,13.939,0,0,0,10.573-3.914c.624-.57,1.064-.975.5-.212.479-.05.314.4.314.339.022-.027-.181-.036-.615-.036a14.605,14.605,0,0,1-10.808-4.53,14.882,14.882,0,0,1-4.484-10.8,21.633,21.633,0,0,1,3.38-11.632,23.687,23.687,0,0,1,9.887-8.642q6.575-3.295,17.279-3.3ZM294,277.938a6.255,6.255,0,0,1-1.844,4.475A6.371,6.371,0,1,1,294,277.936Zm24.025,37.776a24.158,24.158,0,0,1-7.555,18.027q-7.537,7.3-19.646,7.175l4.987-2.519q-4.987-6.034,2.459-9.748,8.567-4.206,8.567-12.936V297.088q0-4.145,7.121-1.507-1.214-8.6,4.067-8.606Zm24.242,10.164A15.419,15.419,0,0,1,327.1,310.5v-37.45q0-4.2,8.043-1.884-2.118-8.22,3.127-8.225V310.5a4.2,4.2,0,0,0,4.157,4.165h2.513v11.215Zm28.554-47.94a6.351,6.351,0,1,1-6.343-6.359,6.36,6.36,0,0,1,6.343,6.359ZM346.3,307.85q.034-9.2,5.4-14.838a19.155,19.155,0,0,1,13.375-6h.127a1.907,1.907,0,0,1,.487-.036l1.755.091a23.615,23.615,0,0,1,12.562,4.766,29.615,29.615,0,0,1,9.4,12.394q3.583,8.155,3.579,21.651H341.819v-11.22h39.006q-1.627-8.6-6.148-12.556-4.555-3.873-8.948-3.878a8.839,8.839,0,0,0-4.266,1.178,8.4,8.4,0,0,0-3.254,3.587q-2.765,4.857-6.308-.6ZM244.825,262.936"
          transform="translate(-244.82 -262.936)"
          fill="rgba(255, 255, 255, 1)"
        />
      </svg>